ply
format ascii 1.0
comment VCGLIB generated
element vertex 100
property float x
property float y
property float z
property float nx
property float ny
property float nz
element face 0
property list uchar int vertex_indices
end_header
0.1410672 0 0.99 0.1410672 0 0.99 
-0.179258 -0.164215 0.97 -0.179258 -0.164215 0.97 
0.0272986 0.3110543 0.95 0.0272986 0.3110543 0.95 
0.2236373 -0.2916957 0.93 0.2236373 -0.2916957 0.93 
-0.4082703 0.07221708 0.91 -0.4082703 0.07221708 0.91 
0.3847192 0.2447267 0.89 0.3847192 0.2447267 0.89 
-0.1279987 -0.4761474 0.87 -0.1279987 -0.4761474 0.87 
-0.2427972 0.4674928 0.85 -0.2427972 0.4674928 0.85 
0.5239192 -0.1913339 0.83 0.5239192 -0.1913339 0.83 
-0.5420639 -0.2237561 0.81 -0.5420639 -0.2237561 0.81 
0.2598631 0.5553117 0.79 0.2598631 0.5553117 0.79 
0.1909555 -0.6087988 0.77 0.1909555 -0.6087988 0.77 
-0.5722828 0.331651 0.75 -0.5722829 0.331651 0.7500001 
0.6675062 0.1467498 0.73 0.6675062 0.1467498 0.73 
-0.4050088 -0.5760798 0.71 -0.4050088 -0.5760798 0.71 
-0.09301673 0.7178077 0.69 -0.09301673 0.7178077 0.69 
0.5676465 -0.4784114 0.67 0.5676465 -0.4784114 0.67 
-0.7592854 -0.03139729 0.65 -0.7592854 -0.03139729 0.65 
0.5504733 0.5477948 0.63 0.5504733 0.5477948 0.63 
-0.03660481 -0.7915555 0.61 -0.03660481 -0.7915555 0.61 
-0.5173101 0.6199115 0.59 -0.5173101 0.6199115 0.59 
0.814307 -0.1095628 0.57 0.814307 -0.1095628 0.57 
-0.685553 -0.4769876 0.55 -0.685553 -0.4769876 0.55 
0.1861195 0.8273208 0.53 0.1861195 0.8273208 0.53 
0.4276595 -0.7463293 0.51 0.4276595 -0.7463293 0.51 
-0.8304833 0.264948 0.49 -0.8304833 0.264948 0.49 
0.8012763 0.3702111 0.47 0.8012763 0.3702111 0.47 
-0.3447606 -0.8237962 0.45 -0.3447606 -0.8237962 0.45 
-0.3055593 0.849549 0.43 -0.3055593 0.849549 0.43 
0.8073669 -0.4243332 0.41 0.8073669 -0.4243332 0.41 
-0.8904007 -0.2347054 0.39 -0.8904007 -0.2347054 0.39 
0.5024547 0.7814341 0.37 0.5024547 0.7814341 0.37 
0.1586661 -0.9232146 0.35 0.1586661 -0.9232146 0.35 
-0.7463296 0.578007 0.33 -0.7463296 0.578007 0.33 
0.9474908 0.07849387 0.31 0.9474908 0.07849387 0.31 
-0.6498981 -0.7025186 0.29 -0.6498981 -0.7025186 0.29 
0.004696356 0.9628488 0.27 0.004696356 0.9628489 0.27 
0.6505525 -0.7171343 0.25 0.6505525 -0.7171343 0.25 
-0.9690371 0.08981661 0.23 -0.9690372 0.08981662 0.23 
0.7787997 0.5910761 0.21 0.7787998 0.5910761 0.21 
-0.1757249 -0.9659299 0.19 -0.1757249 -0.96593 0.19 
-0.5248534 0.8340437 0.17 -0.5248534 0.8340437 0.17 
0.9535263 -0.261319 0.15 0.9535263 -0.2613191 0.15 
-0.8821394 -0.4526918 0.13 -0.8821395 -0.4526919 0.13 
0.3455115 0.9319451 0.11 0.3455115 0.9319452 0.11 
0.3755106 -0.922438 0.09 0.3755106 -0.922438 0.09 
-0.9014394 0.4272086 0.07 -0.9014394 0.4272086 0.07 
0.9544167 0.2942596 0.05 0.9544168 0.2942596 0.05 
-0.505401 -0.862363 0.03 -0.505401 -0.862363 0.03 
-0.2099373 0.9776637 0.01 -0.2099373 0.9776638 0.01 
0.8152048 -0.5790864 -0.01 0.8152048 -0.5790864 -0.01 
-0.9918766 -0.1236156 -0.03 -0.9918766 -0.1236156 -0.03 
0.6473569 0.7605451 -0.05 0.647357 0.7605452 -0.05 
0.03635864 -0.9968842 -0.07 0.03635864 -0.9968842 -0.07 
-0.6990702 0.7093666 -0.09 -0.6990702 0.7093666 -0.09000001 
0.9926354 -0.05074469 -0.11 0.9926354 -0.05074469 -0.11 
-0.7643659 -0.6315416 -0.13 -0.7643659 -0.6315416 -0.13 
0.1366264 0.9792003 -0.15 0.1366264 0.9792003 -0.15 
0.5588596 -0.8116502 -0.17 0.5588596 -0.8116502 -0.17 
-0.9567811 0.2201584 -0.19 -0.9567812 0.2201584 -0.19 
0.8506621 0.481948 -0.21 0.8506622 0.481948 -0.21 
-0.3003066 -0.9256975 -0.23 -0.3003066 -0.9256976 -0.23 
-0.4018131 0.8809349 -0.25 -0.4018131 0.8809349 -0.25 
0.8863904 -0.3760478 -0.27 0.8863904 -0.3760478 -0.27 
-0.9021137 -0.3195167 -0.29 -0.9021137 -0.3195167 -0.29 
0.4464046 0.8394182 -0.31 0.4464046 0.8394182 -0.31 
0.2361443 -0.9139671 -0.33 0.2361443 -0.9139671 -0.33 
-0.7854394 0.5104753 -0.35 -0.7854394 0.5104753 -0.35 
0.9163666 0.1528801 -0.37 0.9163666 0.1528801 -0.37 
-0.5673665 -0.7252553 -0.39 -0.5673665 -0.7252553 -0.39 
-0.07086838 0.9093282 -0.41 -0.07086838 0.9093282 -0.41 
0.6597357 -0.6163188 -0.43 0.6597357 -0.6163188 -0.43 
-0.8929861 0.008711398 -0.45 -0.8929861 0.008711399 -0.45 
0.6566346 0.5898567 -0.47 0.6566346 0.5898567 -0.47 
-0.08467451 -0.8676003 -0.49 -0.08467451 -0.8676003 -0.49 
-0.5166844 0.6877044 -0.51 -0.5166844 0.6877044 -0.51 
0.8335519 -0.1558569 -0.53 0.8335519 -0.1558569 -0.53 
-0.7090192 -0.4413522 -0.55 -0.7090192 -0.4413522 -0.55 
0.2210405 0.7913539 -0.57 0.2210405 0.7913539 -0.57 
0.3651251 -0.7201275 -0.59 0.3651251 -0.7201275 -0.59 
-0.741631 0.279076 -0.61 -0.741631 0.279076 -0.61 
0.7206994 0.2892962 -0.63 0.7206995 0.2892962 -0.6300001 
-0.3287944 -0.6851236 -0.65 -0.3287944 -0.6851236 -0.65 
-0.2152577 0.7104676 -0.67 -0.2152577 0.7104676 -0.67 
0.6226794 -0.3690127 -0.69 0.6226794 -0.3690127 -0.69 
-0.689218 -0.1444939 -0.71 -0.689218 -0.1444939 -0.71 
0.3985142 0.5552354 -0.73 0.3985142 0.5552354 -0.73 
0.07859058 -0.6567522 -0.75 0.07859058 -0.6567522 -0.75 
-0.483841 0.4159301 -0.77 -0.483841 0.4159302 -0.77 
0.6128014 0.01935039 -0.79 0.6128014 0.01935039 -0.79 
-0.4196965 -0.4095789 -0.81 -0.4196965 -0.4095789 -0.81 
0.03119968 0.5568901 -0.83 0.03119968 0.5568901 -0.83 
0.3335527 -0.4077286 -0.85 0.3335527 -0.4077286 -0.85 
-0.4879839 0.07050988 -0.87 -0.4879839 0.07050988 -0.87 
0.3768006 0.2567515 -0.89 0.3768006 0.2567515 -0.89 
-0.09493786 -0.4035923 -0.91 -0.09493786 -0.4035923 -0.91 
-0.1796189 0.3206822 -0.93 -0.1796189 0.3206822 -0.93 
0.296537 -0.09780494 -0.95 0.296537 -0.09780494 -0.95 
-0.2216737 -0.09980358 -0.97 -0.2216737 -0.09980358 -0.97 
0.05572851 0.1295928 -0.99 0.05572851 0.1295928 -0.99 
